<mxfile host="app.diagrams.net" agent="Mozilla/5.0 (Windows NT 10.0; Win64; x64) AppleWebKit/537.36 (KHTML, like Gecko) Chrome/132.0.0.0 Safari/537.36 OPR/117.0.0.0" version="26.1.0">
  <diagram name="Pagina-1" id="uckCJ7SKmQ7LVwU3KDfm">
    <mxGraphModel dx="1207" dy="653" grid="1" gridSize="10" guides="1" tooltips="1" connect="1" arrows="1" fold="1" page="1" pageScale="1" pageWidth="827" pageHeight="1169" math="0" shadow="0">
      <root>
        <mxCell id="0" />
        <mxCell id="1" parent="0" />
        <mxCell id="7bP9xAwLrKqdI4EZrF-T-121" style="edgeStyle=orthogonalEdgeStyle;rounded=0;orthogonalLoop=1;jettySize=auto;html=1;entryX=0.32;entryY=0;entryDx=0;entryDy=0;entryPerimeter=0;" edge="1" parent="1" source="7bP9xAwLrKqdI4EZrF-T-1" target="7bP9xAwLrKqdI4EZrF-T-99">
          <mxGeometry relative="1" as="geometry">
            <mxPoint x="160" y="530" as="targetPoint" />
            <Array as="points">
              <mxPoint x="160" y="350" />
              <mxPoint x="160" y="350" />
            </Array>
          </mxGeometry>
        </mxCell>
        <mxCell id="7bP9xAwLrKqdI4EZrF-T-1" value="" style="shape=table;startSize=0;container=1;collapsible=0;childLayout=tableLayout;" vertex="1" parent="1">
          <mxGeometry x="70" y="80" width="190" height="220" as="geometry" />
        </mxCell>
        <mxCell id="7bP9xAwLrKqdI4EZrF-T-2" value="" style="shape=tableRow;horizontal=0;startSize=0;swimlaneHead=0;swimlaneBody=0;strokeColor=inherit;top=0;left=0;bottom=0;right=0;collapsible=0;dropTarget=0;fillColor=none;points=[[0,0.5],[1,0.5]];portConstraint=eastwest;" vertex="1" parent="7bP9xAwLrKqdI4EZrF-T-1">
          <mxGeometry width="190" height="44" as="geometry" />
        </mxCell>
        <mxCell id="7bP9xAwLrKqdI4EZrF-T-3" value="ID" style="shape=partialRectangle;html=1;whiteSpace=wrap;connectable=0;strokeColor=inherit;overflow=hidden;fillColor=none;top=0;left=0;bottom=0;right=0;pointerEvents=1;" vertex="1" parent="7bP9xAwLrKqdI4EZrF-T-2">
          <mxGeometry width="60" height="44" as="geometry">
            <mxRectangle width="60" height="44" as="alternateBounds" />
          </mxGeometry>
        </mxCell>
        <mxCell id="7bP9xAwLrKqdI4EZrF-T-4" value="PK" style="shape=partialRectangle;html=1;whiteSpace=wrap;connectable=0;strokeColor=inherit;overflow=hidden;fillColor=none;top=0;left=0;bottom=0;right=0;pointerEvents=1;" vertex="1" parent="7bP9xAwLrKqdI4EZrF-T-2">
          <mxGeometry x="60" width="130" height="44" as="geometry">
            <mxRectangle width="130" height="44" as="alternateBounds" />
          </mxGeometry>
        </mxCell>
        <mxCell id="7bP9xAwLrKqdI4EZrF-T-5" value="" style="shape=tableRow;horizontal=0;startSize=0;swimlaneHead=0;swimlaneBody=0;strokeColor=inherit;top=0;left=0;bottom=0;right=0;collapsible=0;dropTarget=0;fillColor=none;points=[[0,0.5],[1,0.5]];portConstraint=eastwest;" vertex="1" parent="7bP9xAwLrKqdI4EZrF-T-1">
          <mxGeometry y="44" width="190" height="44" as="geometry" />
        </mxCell>
        <mxCell id="7bP9xAwLrKqdI4EZrF-T-6" value="nome" style="shape=partialRectangle;html=1;whiteSpace=wrap;connectable=0;strokeColor=inherit;overflow=hidden;fillColor=none;top=0;left=0;bottom=0;right=0;pointerEvents=1;" vertex="1" parent="7bP9xAwLrKqdI4EZrF-T-5">
          <mxGeometry width="60" height="44" as="geometry">
            <mxRectangle width="60" height="44" as="alternateBounds" />
          </mxGeometry>
        </mxCell>
        <mxCell id="7bP9xAwLrKqdI4EZrF-T-7" value="VARCHAR(100), not null" style="shape=partialRectangle;html=1;whiteSpace=wrap;connectable=0;strokeColor=inherit;overflow=hidden;fillColor=none;top=0;left=0;bottom=0;right=0;pointerEvents=1;" vertex="1" parent="7bP9xAwLrKqdI4EZrF-T-5">
          <mxGeometry x="60" width="130" height="44" as="geometry">
            <mxRectangle width="130" height="44" as="alternateBounds" />
          </mxGeometry>
        </mxCell>
        <mxCell id="7bP9xAwLrKqdI4EZrF-T-8" value="" style="shape=tableRow;horizontal=0;startSize=0;swimlaneHead=0;swimlaneBody=0;strokeColor=inherit;top=0;left=0;bottom=0;right=0;collapsible=0;dropTarget=0;fillColor=none;points=[[0,0.5],[1,0.5]];portConstraint=eastwest;" vertex="1" parent="7bP9xAwLrKqdI4EZrF-T-1">
          <mxGeometry y="88" width="190" height="44" as="geometry" />
        </mxCell>
        <mxCell id="7bP9xAwLrKqdI4EZrF-T-9" value="email" style="shape=partialRectangle;html=1;whiteSpace=wrap;connectable=0;strokeColor=inherit;overflow=hidden;fillColor=none;top=0;left=0;bottom=0;right=0;pointerEvents=1;" vertex="1" parent="7bP9xAwLrKqdI4EZrF-T-8">
          <mxGeometry width="60" height="44" as="geometry">
            <mxRectangle width="60" height="44" as="alternateBounds" />
          </mxGeometry>
        </mxCell>
        <mxCell id="7bP9xAwLrKqdI4EZrF-T-10" value="VARCHAR(100), not null" style="shape=partialRectangle;html=1;whiteSpace=wrap;connectable=0;strokeColor=inherit;overflow=hidden;fillColor=none;top=0;left=0;bottom=0;right=0;pointerEvents=1;" vertex="1" parent="7bP9xAwLrKqdI4EZrF-T-8">
          <mxGeometry x="60" width="130" height="44" as="geometry">
            <mxRectangle width="130" height="44" as="alternateBounds" />
          </mxGeometry>
        </mxCell>
        <mxCell id="7bP9xAwLrKqdI4EZrF-T-11" value="" style="shape=tableRow;horizontal=0;startSize=0;swimlaneHead=0;swimlaneBody=0;strokeColor=inherit;top=0;left=0;bottom=0;right=0;collapsible=0;dropTarget=0;fillColor=none;points=[[0,0.5],[1,0.5]];portConstraint=eastwest;" vertex="1" parent="7bP9xAwLrKqdI4EZrF-T-1">
          <mxGeometry y="132" width="190" height="44" as="geometry" />
        </mxCell>
        <mxCell id="7bP9xAwLrKqdI4EZrF-T-12" value="psw" style="shape=partialRectangle;html=1;whiteSpace=wrap;connectable=0;strokeColor=inherit;overflow=hidden;fillColor=none;top=0;left=0;bottom=0;right=0;pointerEvents=1;" vertex="1" parent="7bP9xAwLrKqdI4EZrF-T-11">
          <mxGeometry width="60" height="44" as="geometry">
            <mxRectangle width="60" height="44" as="alternateBounds" />
          </mxGeometry>
        </mxCell>
        <mxCell id="7bP9xAwLrKqdI4EZrF-T-13" value="VARCHAR(100), not null" style="shape=partialRectangle;html=1;whiteSpace=wrap;connectable=0;strokeColor=inherit;overflow=hidden;fillColor=none;top=0;left=0;bottom=0;right=0;pointerEvents=1;" vertex="1" parent="7bP9xAwLrKqdI4EZrF-T-11">
          <mxGeometry x="60" width="130" height="44" as="geometry">
            <mxRectangle width="130" height="44" as="alternateBounds" />
          </mxGeometry>
        </mxCell>
        <mxCell id="7bP9xAwLrKqdI4EZrF-T-14" value="" style="shape=tableRow;horizontal=0;startSize=0;swimlaneHead=0;swimlaneBody=0;strokeColor=inherit;top=0;left=0;bottom=0;right=0;collapsible=0;dropTarget=0;fillColor=none;points=[[0,0.5],[1,0.5]];portConstraint=eastwest;" vertex="1" parent="7bP9xAwLrKqdI4EZrF-T-1">
          <mxGeometry y="176" width="190" height="44" as="geometry" />
        </mxCell>
        <mxCell id="7bP9xAwLrKqdI4EZrF-T-15" value="id.ruolo" style="shape=partialRectangle;html=1;whiteSpace=wrap;connectable=0;strokeColor=inherit;overflow=hidden;fillColor=none;top=0;left=0;bottom=0;right=0;pointerEvents=1;" vertex="1" parent="7bP9xAwLrKqdI4EZrF-T-14">
          <mxGeometry width="60" height="44" as="geometry">
            <mxRectangle width="60" height="44" as="alternateBounds" />
          </mxGeometry>
        </mxCell>
        <mxCell id="7bP9xAwLrKqdI4EZrF-T-16" value="FK" style="shape=partialRectangle;html=1;whiteSpace=wrap;connectable=0;overflow=hidden;top=0;left=0;bottom=0;right=0;pointerEvents=1;" vertex="1" parent="7bP9xAwLrKqdI4EZrF-T-14">
          <mxGeometry x="60" width="130" height="44" as="geometry">
            <mxRectangle width="130" height="44" as="alternateBounds" />
          </mxGeometry>
        </mxCell>
        <mxCell id="7bP9xAwLrKqdI4EZrF-T-17" value="UTENTI" style="text;html=1;align=center;verticalAlign=middle;resizable=0;points=[];autosize=1;strokeColor=none;fillColor=none;" vertex="1" parent="1">
          <mxGeometry x="130" y="50" width="70" height="30" as="geometry" />
        </mxCell>
        <mxCell id="7bP9xAwLrKqdI4EZrF-T-27" value="" style="shape=table;startSize=0;container=1;collapsible=0;childLayout=tableLayout;" vertex="1" parent="1">
          <mxGeometry x="470" y="80" width="250" height="80" as="geometry" />
        </mxCell>
        <mxCell id="7bP9xAwLrKqdI4EZrF-T-28" value="" style="shape=tableRow;horizontal=0;startSize=0;swimlaneHead=0;swimlaneBody=0;strokeColor=inherit;top=0;left=0;bottom=0;right=0;collapsible=0;dropTarget=0;fillColor=none;points=[[0,0.5],[1,0.5]];portConstraint=eastwest;" vertex="1" parent="7bP9xAwLrKqdI4EZrF-T-27">
          <mxGeometry width="250" height="40" as="geometry" />
        </mxCell>
        <mxCell id="7bP9xAwLrKqdI4EZrF-T-29" value="ID" style="shape=partialRectangle;html=1;whiteSpace=wrap;connectable=0;strokeColor=inherit;overflow=hidden;fillColor=none;top=0;left=0;bottom=0;right=0;pointerEvents=1;" vertex="1" parent="7bP9xAwLrKqdI4EZrF-T-28">
          <mxGeometry width="90" height="40" as="geometry">
            <mxRectangle width="90" height="40" as="alternateBounds" />
          </mxGeometry>
        </mxCell>
        <mxCell id="7bP9xAwLrKqdI4EZrF-T-30" value="PK" style="shape=partialRectangle;html=1;whiteSpace=wrap;connectable=0;strokeColor=inherit;overflow=hidden;fillColor=none;top=0;left=0;bottom=0;right=0;pointerEvents=1;" vertex="1" parent="7bP9xAwLrKqdI4EZrF-T-28">
          <mxGeometry x="90" width="160" height="40" as="geometry">
            <mxRectangle width="160" height="40" as="alternateBounds" />
          </mxGeometry>
        </mxCell>
        <mxCell id="7bP9xAwLrKqdI4EZrF-T-56" style="shape=tableRow;horizontal=0;startSize=0;swimlaneHead=0;swimlaneBody=0;strokeColor=inherit;top=0;left=0;bottom=0;right=0;collapsible=0;dropTarget=0;fillColor=none;points=[[0,0.5],[1,0.5]];portConstraint=eastwest;" vertex="1" parent="7bP9xAwLrKqdI4EZrF-T-27">
          <mxGeometry y="40" width="250" height="40" as="geometry" />
        </mxCell>
        <mxCell id="7bP9xAwLrKqdI4EZrF-T-57" value="nome" style="shape=partialRectangle;html=1;whiteSpace=wrap;connectable=0;strokeColor=inherit;overflow=hidden;fillColor=none;top=0;left=0;bottom=0;right=0;pointerEvents=1;" vertex="1" parent="7bP9xAwLrKqdI4EZrF-T-56">
          <mxGeometry width="90" height="40" as="geometry">
            <mxRectangle width="90" height="40" as="alternateBounds" />
          </mxGeometry>
        </mxCell>
        <mxCell id="7bP9xAwLrKqdI4EZrF-T-58" value="VARCHAR(100), not null" style="shape=partialRectangle;html=1;whiteSpace=wrap;connectable=0;strokeColor=inherit;overflow=hidden;fillColor=none;top=0;left=0;bottom=0;right=0;pointerEvents=1;" vertex="1" parent="7bP9xAwLrKqdI4EZrF-T-56">
          <mxGeometry x="90" width="160" height="40" as="geometry">
            <mxRectangle width="160" height="40" as="alternateBounds" />
          </mxGeometry>
        </mxCell>
        <mxCell id="7bP9xAwLrKqdI4EZrF-T-49" value="RUOLI" style="text;html=1;align=center;verticalAlign=middle;resizable=0;points=[];autosize=1;strokeColor=none;fillColor=none;" vertex="1" parent="1">
          <mxGeometry x="565" y="50" width="60" height="30" as="geometry" />
        </mxCell>
        <mxCell id="7bP9xAwLrKqdI4EZrF-T-50" style="edgeStyle=orthogonalEdgeStyle;rounded=0;orthogonalLoop=1;jettySize=auto;html=1;entryX=0.985;entryY=0.287;entryDx=0;entryDy=0;entryPerimeter=0;exitX=0;exitY=0.5;exitDx=0;exitDy=0;" edge="1" parent="1" source="7bP9xAwLrKqdI4EZrF-T-54" target="7bP9xAwLrKqdI4EZrF-T-14">
          <mxGeometry relative="1" as="geometry" />
        </mxCell>
        <mxCell id="7bP9xAwLrKqdI4EZrF-T-51" value="*" style="text;html=1;align=center;verticalAlign=middle;resizable=0;points=[];autosize=1;strokeColor=none;fillColor=none;" vertex="1" parent="1">
          <mxGeometry x="440" y="70" width="30" height="30" as="geometry" />
        </mxCell>
        <mxCell id="7bP9xAwLrKqdI4EZrF-T-52" value="*" style="text;html=1;align=center;verticalAlign=middle;resizable=0;points=[];autosize=1;strokeColor=none;fillColor=none;" vertex="1" parent="1">
          <mxGeometry x="260" y="240" width="30" height="30" as="geometry" />
        </mxCell>
        <mxCell id="7bP9xAwLrKqdI4EZrF-T-55" value="" style="edgeStyle=orthogonalEdgeStyle;rounded=0;orthogonalLoop=1;jettySize=auto;html=1;entryX=1;entryY=0.5;entryDx=0;entryDy=0;exitX=0;exitY=0.5;exitDx=0;exitDy=0;" edge="1" parent="1" source="7bP9xAwLrKqdI4EZrF-T-28" target="7bP9xAwLrKqdI4EZrF-T-54">
          <mxGeometry relative="1" as="geometry">
            <mxPoint x="450" y="100" as="sourcePoint" />
            <mxPoint x="257" y="269" as="targetPoint" />
          </mxGeometry>
        </mxCell>
        <mxCell id="7bP9xAwLrKqdI4EZrF-T-54" value="" style="rhombus;whiteSpace=wrap;html=1;" vertex="1" parent="1">
          <mxGeometry x="320" y="160" width="80" height="80" as="geometry" />
        </mxCell>
        <mxCell id="7bP9xAwLrKqdI4EZrF-T-74" value="" style="shape=table;startSize=0;container=1;collapsible=0;childLayout=tableLayout;" vertex="1" parent="1">
          <mxGeometry x="910" y="80" width="270" height="80" as="geometry" />
        </mxCell>
        <mxCell id="7bP9xAwLrKqdI4EZrF-T-75" value="" style="shape=tableRow;horizontal=0;startSize=0;swimlaneHead=0;swimlaneBody=0;strokeColor=inherit;top=0;left=0;bottom=0;right=0;collapsible=0;dropTarget=0;fillColor=none;points=[[0,0.5],[1,0.5]];portConstraint=eastwest;" vertex="1" parent="7bP9xAwLrKqdI4EZrF-T-74">
          <mxGeometry width="270" height="40" as="geometry" />
        </mxCell>
        <mxCell id="7bP9xAwLrKqdI4EZrF-T-76" value="ID" style="shape=partialRectangle;html=1;whiteSpace=wrap;connectable=0;strokeColor=inherit;overflow=hidden;fillColor=none;top=0;left=0;bottom=0;right=0;pointerEvents=1;" vertex="1" parent="7bP9xAwLrKqdI4EZrF-T-75">
          <mxGeometry width="118" height="40" as="geometry">
            <mxRectangle width="118" height="40" as="alternateBounds" />
          </mxGeometry>
        </mxCell>
        <mxCell id="7bP9xAwLrKqdI4EZrF-T-134" value="pk" style="shape=partialRectangle;html=1;whiteSpace=wrap;connectable=0;strokeColor=inherit;overflow=hidden;fillColor=none;top=0;left=0;bottom=0;right=0;pointerEvents=1;" vertex="1" parent="7bP9xAwLrKqdI4EZrF-T-75">
          <mxGeometry x="118" width="152" height="40" as="geometry">
            <mxRectangle width="152" height="40" as="alternateBounds" />
          </mxGeometry>
        </mxCell>
        <mxCell id="7bP9xAwLrKqdI4EZrF-T-78" value="" style="shape=tableRow;horizontal=0;startSize=0;swimlaneHead=0;swimlaneBody=0;strokeColor=inherit;top=0;left=0;bottom=0;right=0;collapsible=0;dropTarget=0;fillColor=none;points=[[0,0.5],[1,0.5]];portConstraint=eastwest;" vertex="1" parent="7bP9xAwLrKqdI4EZrF-T-74">
          <mxGeometry y="40" width="270" height="40" as="geometry" />
        </mxCell>
        <mxCell id="7bP9xAwLrKqdI4EZrF-T-79" value="nome" style="shape=partialRectangle;html=1;whiteSpace=wrap;connectable=0;strokeColor=inherit;overflow=hidden;fillColor=none;top=0;left=0;bottom=0;right=0;pointerEvents=1;" vertex="1" parent="7bP9xAwLrKqdI4EZrF-T-78">
          <mxGeometry width="118" height="40" as="geometry">
            <mxRectangle width="118" height="40" as="alternateBounds" />
          </mxGeometry>
        </mxCell>
        <mxCell id="7bP9xAwLrKqdI4EZrF-T-135" value="VARCHAR(100), not null" style="shape=partialRectangle;html=1;whiteSpace=wrap;connectable=0;strokeColor=inherit;overflow=hidden;fillColor=none;top=0;left=0;bottom=0;right=0;pointerEvents=1;" vertex="1" parent="7bP9xAwLrKqdI4EZrF-T-78">
          <mxGeometry x="118" width="152" height="40" as="geometry">
            <mxRectangle width="152" height="40" as="alternateBounds" />
          </mxGeometry>
        </mxCell>
        <mxCell id="7bP9xAwLrKqdI4EZrF-T-91" value="permessi" style="text;html=1;align=center;verticalAlign=middle;resizable=0;points=[];autosize=1;strokeColor=none;fillColor=none;" vertex="1" parent="1">
          <mxGeometry x="1030" y="50" width="70" height="30" as="geometry" />
        </mxCell>
        <mxCell id="7bP9xAwLrKqdI4EZrF-T-98" value="" style="shape=table;startSize=0;container=1;collapsible=0;childLayout=tableLayout;" vertex="1" parent="1">
          <mxGeometry x="80" y="560" width="250" height="440" as="geometry" />
        </mxCell>
        <mxCell id="7bP9xAwLrKqdI4EZrF-T-99" value="" style="shape=tableRow;horizontal=0;startSize=0;swimlaneHead=0;swimlaneBody=0;strokeColor=inherit;top=0;left=0;bottom=0;right=0;collapsible=0;dropTarget=0;fillColor=none;points=[[0,0.5],[1,0.5]];portConstraint=eastwest;" vertex="1" parent="7bP9xAwLrKqdI4EZrF-T-98">
          <mxGeometry width="250" height="40" as="geometry" />
        </mxCell>
        <mxCell id="7bP9xAwLrKqdI4EZrF-T-100" value="ID" style="shape=partialRectangle;html=1;whiteSpace=wrap;connectable=0;strokeColor=inherit;overflow=hidden;fillColor=none;top=0;left=0;bottom=0;right=0;pointerEvents=1;" vertex="1" parent="7bP9xAwLrKqdI4EZrF-T-99">
          <mxGeometry width="100" height="40" as="geometry">
            <mxRectangle width="100" height="40" as="alternateBounds" />
          </mxGeometry>
        </mxCell>
        <mxCell id="7bP9xAwLrKqdI4EZrF-T-101" value="PK" style="shape=partialRectangle;html=1;whiteSpace=wrap;connectable=0;strokeColor=inherit;overflow=hidden;fillColor=none;top=0;left=0;bottom=0;right=0;pointerEvents=1;" vertex="1" parent="7bP9xAwLrKqdI4EZrF-T-99">
          <mxGeometry x="100" width="150" height="40" as="geometry">
            <mxRectangle width="150" height="40" as="alternateBounds" />
          </mxGeometry>
        </mxCell>
        <mxCell id="7bP9xAwLrKqdI4EZrF-T-102" value="" style="shape=tableRow;horizontal=0;startSize=0;swimlaneHead=0;swimlaneBody=0;strokeColor=inherit;top=0;left=0;bottom=0;right=0;collapsible=0;dropTarget=0;fillColor=none;points=[[0,0.5],[1,0.5]];portConstraint=eastwest;" vertex="1" parent="7bP9xAwLrKqdI4EZrF-T-98">
          <mxGeometry y="40" width="250" height="40" as="geometry" />
        </mxCell>
        <mxCell id="7bP9xAwLrKqdI4EZrF-T-103" value="titolo" style="shape=partialRectangle;html=1;whiteSpace=wrap;connectable=0;strokeColor=inherit;overflow=hidden;fillColor=none;top=0;left=0;bottom=0;right=0;pointerEvents=1;" vertex="1" parent="7bP9xAwLrKqdI4EZrF-T-102">
          <mxGeometry width="100" height="40" as="geometry">
            <mxRectangle width="100" height="40" as="alternateBounds" />
          </mxGeometry>
        </mxCell>
        <mxCell id="7bP9xAwLrKqdI4EZrF-T-104" value="VARCHAR(255), not null" style="shape=partialRectangle;html=1;whiteSpace=wrap;connectable=0;strokeColor=inherit;overflow=hidden;fillColor=none;top=0;left=0;bottom=0;right=0;pointerEvents=1;" vertex="1" parent="7bP9xAwLrKqdI4EZrF-T-102">
          <mxGeometry x="100" width="150" height="40" as="geometry">
            <mxRectangle width="150" height="40" as="alternateBounds" />
          </mxGeometry>
        </mxCell>
        <mxCell id="7bP9xAwLrKqdI4EZrF-T-105" value="" style="shape=tableRow;horizontal=0;startSize=0;swimlaneHead=0;swimlaneBody=0;strokeColor=inherit;top=0;left=0;bottom=0;right=0;collapsible=0;dropTarget=0;fillColor=none;points=[[0,0.5],[1,0.5]];portConstraint=eastwest;" vertex="1" parent="7bP9xAwLrKqdI4EZrF-T-98">
          <mxGeometry y="80" width="250" height="40" as="geometry" />
        </mxCell>
        <mxCell id="7bP9xAwLrKqdI4EZrF-T-106" value="data inizio" style="shape=partialRectangle;html=1;whiteSpace=wrap;connectable=0;strokeColor=inherit;overflow=hidden;fillColor=none;top=0;left=0;bottom=0;right=0;pointerEvents=1;" vertex="1" parent="7bP9xAwLrKqdI4EZrF-T-105">
          <mxGeometry width="100" height="40" as="geometry">
            <mxRectangle width="100" height="40" as="alternateBounds" />
          </mxGeometry>
        </mxCell>
        <mxCell id="7bP9xAwLrKqdI4EZrF-T-107" value="date, not nullable" style="shape=partialRectangle;html=1;whiteSpace=wrap;connectable=0;strokeColor=inherit;overflow=hidden;fillColor=none;top=0;left=0;bottom=0;right=0;pointerEvents=1;" vertex="1" parent="7bP9xAwLrKqdI4EZrF-T-105">
          <mxGeometry x="100" width="150" height="40" as="geometry">
            <mxRectangle width="150" height="40" as="alternateBounds" />
          </mxGeometry>
        </mxCell>
        <mxCell id="7bP9xAwLrKqdI4EZrF-T-108" value="" style="shape=tableRow;horizontal=0;startSize=0;swimlaneHead=0;swimlaneBody=0;strokeColor=inherit;top=0;left=0;bottom=0;right=0;collapsible=0;dropTarget=0;fillColor=none;points=[[0,0.5],[1,0.5]];portConstraint=eastwest;" vertex="1" parent="7bP9xAwLrKqdI4EZrF-T-98">
          <mxGeometry y="120" width="250" height="40" as="geometry" />
        </mxCell>
        <mxCell id="7bP9xAwLrKqdI4EZrF-T-109" value="durata" style="shape=partialRectangle;html=1;whiteSpace=wrap;connectable=0;strokeColor=inherit;overflow=hidden;fillColor=none;top=0;left=0;bottom=0;right=0;pointerEvents=1;" vertex="1" parent="7bP9xAwLrKqdI4EZrF-T-108">
          <mxGeometry width="100" height="40" as="geometry">
            <mxRectangle width="100" height="40" as="alternateBounds" />
          </mxGeometry>
        </mxCell>
        <mxCell id="7bP9xAwLrKqdI4EZrF-T-110" value="decimal, nullable" style="shape=partialRectangle;html=1;whiteSpace=wrap;connectable=0;strokeColor=inherit;overflow=hidden;fillColor=none;top=0;left=0;bottom=0;right=0;pointerEvents=1;" vertex="1" parent="7bP9xAwLrKqdI4EZrF-T-108">
          <mxGeometry x="100" width="150" height="40" as="geometry">
            <mxRectangle width="150" height="40" as="alternateBounds" />
          </mxGeometry>
        </mxCell>
        <mxCell id="7bP9xAwLrKqdI4EZrF-T-111" value="" style="shape=tableRow;horizontal=0;startSize=0;swimlaneHead=0;swimlaneBody=0;strokeColor=inherit;top=0;left=0;bottom=0;right=0;collapsible=0;dropTarget=0;fillColor=none;points=[[0,0.5],[1,0.5]];portConstraint=eastwest;" vertex="1" parent="7bP9xAwLrKqdI4EZrF-T-98">
          <mxGeometry y="160" width="250" height="40" as="geometry" />
        </mxCell>
        <mxCell id="7bP9xAwLrKqdI4EZrF-T-112" value="descrizione" style="shape=partialRectangle;html=1;whiteSpace=wrap;connectable=0;strokeColor=inherit;overflow=hidden;fillColor=none;top=0;left=0;bottom=0;right=0;pointerEvents=1;" vertex="1" parent="7bP9xAwLrKqdI4EZrF-T-111">
          <mxGeometry width="100" height="40" as="geometry">
            <mxRectangle width="100" height="40" as="alternateBounds" />
          </mxGeometry>
        </mxCell>
        <mxCell id="7bP9xAwLrKqdI4EZrF-T-113" value="VARCHAR(255), nullable" style="shape=partialRectangle;html=1;whiteSpace=wrap;connectable=0;strokeColor=inherit;overflow=hidden;fillColor=none;top=0;left=0;bottom=0;right=0;pointerEvents=1;" vertex="1" parent="7bP9xAwLrKqdI4EZrF-T-111">
          <mxGeometry x="100" width="150" height="40" as="geometry">
            <mxRectangle width="150" height="40" as="alternateBounds" />
          </mxGeometry>
        </mxCell>
        <mxCell id="7bP9xAwLrKqdI4EZrF-T-114" value="" style="shape=tableRow;horizontal=0;startSize=0;swimlaneHead=0;swimlaneBody=0;strokeColor=inherit;top=0;left=0;bottom=0;right=0;collapsible=0;dropTarget=0;fillColor=none;points=[[0,0.5],[1,0.5]];portConstraint=eastwest;" vertex="1" parent="7bP9xAwLrKqdI4EZrF-T-98">
          <mxGeometry y="200" width="250" height="40" as="geometry" />
        </mxCell>
        <mxCell id="7bP9xAwLrKqdI4EZrF-T-115" value="prezzo" style="shape=partialRectangle;html=1;whiteSpace=wrap;connectable=0;strokeColor=inherit;overflow=hidden;fillColor=none;top=0;left=0;bottom=0;right=0;pointerEvents=1;" vertex="1" parent="7bP9xAwLrKqdI4EZrF-T-114">
          <mxGeometry width="100" height="40" as="geometry">
            <mxRectangle width="100" height="40" as="alternateBounds" />
          </mxGeometry>
        </mxCell>
        <mxCell id="7bP9xAwLrKqdI4EZrF-T-116" value="decimal, nullable" style="shape=partialRectangle;html=1;whiteSpace=wrap;connectable=0;strokeColor=inherit;overflow=hidden;fillColor=none;top=0;left=0;bottom=0;right=0;pointerEvents=1;" vertex="1" parent="7bP9xAwLrKqdI4EZrF-T-114">
          <mxGeometry x="100" width="150" height="40" as="geometry">
            <mxRectangle width="150" height="40" as="alternateBounds" />
          </mxGeometry>
        </mxCell>
        <mxCell id="7bP9xAwLrKqdI4EZrF-T-118" style="shape=tableRow;horizontal=0;startSize=0;swimlaneHead=0;swimlaneBody=0;strokeColor=inherit;top=0;left=0;bottom=0;right=0;collapsible=0;dropTarget=0;fillColor=none;points=[[0,0.5],[1,0.5]];portConstraint=eastwest;" vertex="1" parent="7bP9xAwLrKqdI4EZrF-T-98">
          <mxGeometry y="240" width="250" height="40" as="geometry" />
        </mxCell>
        <mxCell id="7bP9xAwLrKqdI4EZrF-T-119" value="id.tag" style="shape=partialRectangle;html=1;whiteSpace=wrap;connectable=0;strokeColor=inherit;overflow=hidden;fillColor=none;top=0;left=0;bottom=0;right=0;pointerEvents=1;" vertex="1" parent="7bP9xAwLrKqdI4EZrF-T-118">
          <mxGeometry width="100" height="40" as="geometry">
            <mxRectangle width="100" height="40" as="alternateBounds" />
          </mxGeometry>
        </mxCell>
        <mxCell id="7bP9xAwLrKqdI4EZrF-T-120" value="fk" style="shape=partialRectangle;html=1;whiteSpace=wrap;connectable=0;strokeColor=inherit;overflow=hidden;fillColor=none;top=0;left=0;bottom=0;right=0;pointerEvents=1;" vertex="1" parent="7bP9xAwLrKqdI4EZrF-T-118">
          <mxGeometry x="100" width="150" height="40" as="geometry">
            <mxRectangle width="150" height="40" as="alternateBounds" />
          </mxGeometry>
        </mxCell>
        <mxCell id="7bP9xAwLrKqdI4EZrF-T-122" style="shape=tableRow;horizontal=0;startSize=0;swimlaneHead=0;swimlaneBody=0;strokeColor=inherit;top=0;left=0;bottom=0;right=0;collapsible=0;dropTarget=0;fillColor=none;points=[[0,0.5],[1,0.5]];portConstraint=eastwest;" vertex="1" parent="7bP9xAwLrKqdI4EZrF-T-98">
          <mxGeometry y="280" width="250" height="40" as="geometry" />
        </mxCell>
        <mxCell id="7bP9xAwLrKqdI4EZrF-T-123" value="id.organizzatore" style="shape=partialRectangle;html=1;whiteSpace=wrap;connectable=0;strokeColor=inherit;overflow=hidden;fillColor=none;top=0;left=0;bottom=0;right=0;pointerEvents=1;" vertex="1" parent="7bP9xAwLrKqdI4EZrF-T-122">
          <mxGeometry width="100" height="40" as="geometry">
            <mxRectangle width="100" height="40" as="alternateBounds" />
          </mxGeometry>
        </mxCell>
        <mxCell id="7bP9xAwLrKqdI4EZrF-T-124" value="fk" style="shape=partialRectangle;html=1;whiteSpace=wrap;connectable=0;strokeColor=inherit;overflow=hidden;fillColor=none;top=0;left=0;bottom=0;right=0;pointerEvents=1;" vertex="1" parent="7bP9xAwLrKqdI4EZrF-T-122">
          <mxGeometry x="100" width="150" height="40" as="geometry">
            <mxRectangle width="150" height="40" as="alternateBounds" />
          </mxGeometry>
        </mxCell>
        <mxCell id="7bP9xAwLrKqdI4EZrF-T-125" style="shape=tableRow;horizontal=0;startSize=0;swimlaneHead=0;swimlaneBody=0;strokeColor=inherit;top=0;left=0;bottom=0;right=0;collapsible=0;dropTarget=0;fillColor=none;points=[[0,0.5],[1,0.5]];portConstraint=eastwest;" vertex="1" parent="7bP9xAwLrKqdI4EZrF-T-98">
          <mxGeometry y="320" width="250" height="40" as="geometry" />
        </mxCell>
        <mxCell id="7bP9xAwLrKqdI4EZrF-T-126" value="id.location" style="shape=partialRectangle;html=1;whiteSpace=wrap;connectable=0;strokeColor=inherit;overflow=hidden;fillColor=none;top=0;left=0;bottom=0;right=0;pointerEvents=1;" vertex="1" parent="7bP9xAwLrKqdI4EZrF-T-125">
          <mxGeometry width="100" height="40" as="geometry">
            <mxRectangle width="100" height="40" as="alternateBounds" />
          </mxGeometry>
        </mxCell>
        <mxCell id="7bP9xAwLrKqdI4EZrF-T-127" value="fk" style="shape=partialRectangle;html=1;whiteSpace=wrap;connectable=0;strokeColor=inherit;overflow=hidden;fillColor=none;top=0;left=0;bottom=0;right=0;pointerEvents=1;" vertex="1" parent="7bP9xAwLrKqdI4EZrF-T-125">
          <mxGeometry x="100" width="150" height="40" as="geometry">
            <mxRectangle width="150" height="40" as="alternateBounds" />
          </mxGeometry>
        </mxCell>
        <mxCell id="7bP9xAwLrKqdI4EZrF-T-128" style="shape=tableRow;horizontal=0;startSize=0;swimlaneHead=0;swimlaneBody=0;strokeColor=inherit;top=0;left=0;bottom=0;right=0;collapsible=0;dropTarget=0;fillColor=none;points=[[0,0.5],[1,0.5]];portConstraint=eastwest;" vertex="1" parent="7bP9xAwLrKqdI4EZrF-T-98">
          <mxGeometry y="360" width="250" height="40" as="geometry" />
        </mxCell>
        <mxCell id="7bP9xAwLrKqdI4EZrF-T-129" value="biglietti totali" style="shape=partialRectangle;html=1;whiteSpace=wrap;connectable=0;strokeColor=inherit;overflow=hidden;fillColor=none;top=0;left=0;bottom=0;right=0;pointerEvents=1;" vertex="1" parent="7bP9xAwLrKqdI4EZrF-T-128">
          <mxGeometry width="100" height="40" as="geometry">
            <mxRectangle width="100" height="40" as="alternateBounds" />
          </mxGeometry>
        </mxCell>
        <mxCell id="7bP9xAwLrKqdI4EZrF-T-130" value="int, not nullable" style="shape=partialRectangle;html=1;whiteSpace=wrap;connectable=0;strokeColor=inherit;overflow=hidden;fillColor=none;top=0;left=0;bottom=0;right=0;pointerEvents=1;" vertex="1" parent="7bP9xAwLrKqdI4EZrF-T-128">
          <mxGeometry x="100" width="150" height="40" as="geometry">
            <mxRectangle width="150" height="40" as="alternateBounds" />
          </mxGeometry>
        </mxCell>
        <mxCell id="7bP9xAwLrKqdI4EZrF-T-218" style="shape=tableRow;horizontal=0;startSize=0;swimlaneHead=0;swimlaneBody=0;strokeColor=inherit;top=0;left=0;bottom=0;right=0;collapsible=0;dropTarget=0;fillColor=none;points=[[0,0.5],[1,0.5]];portConstraint=eastwest;" vertex="1" parent="7bP9xAwLrKqdI4EZrF-T-98">
          <mxGeometry y="400" width="250" height="40" as="geometry" />
        </mxCell>
        <mxCell id="7bP9xAwLrKqdI4EZrF-T-219" value="id.partecipante" style="shape=partialRectangle;html=1;whiteSpace=wrap;connectable=0;strokeColor=inherit;overflow=hidden;fillColor=none;top=0;left=0;bottom=0;right=0;pointerEvents=1;" vertex="1" parent="7bP9xAwLrKqdI4EZrF-T-218">
          <mxGeometry width="100" height="40" as="geometry">
            <mxRectangle width="100" height="40" as="alternateBounds" />
          </mxGeometry>
        </mxCell>
        <mxCell id="7bP9xAwLrKqdI4EZrF-T-220" value="fk" style="shape=partialRectangle;html=1;whiteSpace=wrap;connectable=0;strokeColor=inherit;overflow=hidden;fillColor=none;top=0;left=0;bottom=0;right=0;pointerEvents=1;" vertex="1" parent="7bP9xAwLrKqdI4EZrF-T-218">
          <mxGeometry x="100" width="150" height="40" as="geometry">
            <mxRectangle width="150" height="40" as="alternateBounds" />
          </mxGeometry>
        </mxCell>
        <mxCell id="7bP9xAwLrKqdI4EZrF-T-117" value="EVENTI" style="text;html=1;align=center;verticalAlign=middle;resizable=0;points=[];autosize=1;strokeColor=none;fillColor=none;" vertex="1" parent="1">
          <mxGeometry x="200" y="530" width="70" height="30" as="geometry" />
        </mxCell>
        <mxCell id="7bP9xAwLrKqdI4EZrF-T-131" value="*" style="text;html=1;align=center;verticalAlign=middle;resizable=0;points=[];autosize=1;strokeColor=none;fillColor=none;" vertex="1" parent="1">
          <mxGeometry x="170" y="530" width="30" height="30" as="geometry" />
        </mxCell>
        <mxCell id="7bP9xAwLrKqdI4EZrF-T-132" value="organizzatore&lt;div&gt;evento&lt;/div&gt;&lt;div&gt;&lt;br&gt;&lt;/div&gt;" style="rhombus;whiteSpace=wrap;html=1;" vertex="1" parent="1">
          <mxGeometry x="80" y="360" width="150" height="140" as="geometry" />
        </mxCell>
        <mxCell id="7bP9xAwLrKqdI4EZrF-T-133" value="*" style="text;html=1;align=center;verticalAlign=middle;resizable=0;points=[];autosize=1;strokeColor=none;fillColor=none;" vertex="1" parent="1">
          <mxGeometry x="160" y="300" width="30" height="30" as="geometry" />
        </mxCell>
        <mxCell id="7bP9xAwLrKqdI4EZrF-T-136" style="edgeStyle=orthogonalEdgeStyle;rounded=0;orthogonalLoop=1;jettySize=auto;html=1;" edge="1" parent="1" source="7bP9xAwLrKqdI4EZrF-T-75">
          <mxGeometry relative="1" as="geometry">
            <mxPoint x="840" y="120" as="targetPoint" />
          </mxGeometry>
        </mxCell>
        <mxCell id="7bP9xAwLrKqdI4EZrF-T-137" value="" style="rhombus;whiteSpace=wrap;html=1;" vertex="1" parent="1">
          <mxGeometry x="790" y="80" width="80" height="80" as="geometry" />
        </mxCell>
        <mxCell id="7bP9xAwLrKqdI4EZrF-T-138" style="edgeStyle=orthogonalEdgeStyle;rounded=0;orthogonalLoop=1;jettySize=auto;html=1;entryX=1;entryY=0;entryDx=0;entryDy=0;entryPerimeter=0;" edge="1" parent="1" source="7bP9xAwLrKqdI4EZrF-T-137" target="7bP9xAwLrKqdI4EZrF-T-56">
          <mxGeometry relative="1" as="geometry">
            <Array as="points">
              <mxPoint x="740" y="120" />
              <mxPoint x="740" y="120" />
            </Array>
          </mxGeometry>
        </mxCell>
        <mxCell id="7bP9xAwLrKqdI4EZrF-T-156" style="edgeStyle=orthogonalEdgeStyle;rounded=0;orthogonalLoop=1;jettySize=auto;html=1;entryX=1;entryY=0.5;entryDx=0;entryDy=0;" edge="1" parent="1" source="7bP9xAwLrKqdI4EZrF-T-158" target="7bP9xAwLrKqdI4EZrF-T-118">
          <mxGeometry relative="1" as="geometry">
            <mxPoint x="390" y="830" as="targetPoint" />
          </mxGeometry>
        </mxCell>
        <mxCell id="7bP9xAwLrKqdI4EZrF-T-139" value="" style="shape=table;startSize=0;container=1;collapsible=0;childLayout=tableLayout;" vertex="1" parent="1">
          <mxGeometry x="580" y="560" width="210" height="120" as="geometry" />
        </mxCell>
        <mxCell id="7bP9xAwLrKqdI4EZrF-T-140" value="" style="shape=tableRow;horizontal=0;startSize=0;swimlaneHead=0;swimlaneBody=0;strokeColor=inherit;top=0;left=0;bottom=0;right=0;collapsible=0;dropTarget=0;fillColor=none;points=[[0,0.5],[1,0.5]];portConstraint=eastwest;" vertex="1" parent="7bP9xAwLrKqdI4EZrF-T-139">
          <mxGeometry width="210" height="40" as="geometry" />
        </mxCell>
        <mxCell id="7bP9xAwLrKqdI4EZrF-T-141" value="ID" style="shape=partialRectangle;html=1;whiteSpace=wrap;connectable=0;strokeColor=inherit;overflow=hidden;fillColor=none;top=0;left=0;bottom=0;right=0;pointerEvents=1;" vertex="1" parent="7bP9xAwLrKqdI4EZrF-T-140">
          <mxGeometry width="80" height="40" as="geometry">
            <mxRectangle width="80" height="40" as="alternateBounds" />
          </mxGeometry>
        </mxCell>
        <mxCell id="7bP9xAwLrKqdI4EZrF-T-142" value="pk" style="shape=partialRectangle;html=1;whiteSpace=wrap;connectable=0;strokeColor=inherit;overflow=hidden;fillColor=none;top=0;left=0;bottom=0;right=0;pointerEvents=1;" vertex="1" parent="7bP9xAwLrKqdI4EZrF-T-140">
          <mxGeometry x="80" width="130" height="40" as="geometry">
            <mxRectangle width="130" height="40" as="alternateBounds" />
          </mxGeometry>
        </mxCell>
        <mxCell id="7bP9xAwLrKqdI4EZrF-T-143" value="" style="shape=tableRow;horizontal=0;startSize=0;swimlaneHead=0;swimlaneBody=0;strokeColor=inherit;top=0;left=0;bottom=0;right=0;collapsible=0;dropTarget=0;fillColor=none;points=[[0,0.5],[1,0.5]];portConstraint=eastwest;" vertex="1" parent="7bP9xAwLrKqdI4EZrF-T-139">
          <mxGeometry y="40" width="210" height="40" as="geometry" />
        </mxCell>
        <mxCell id="7bP9xAwLrKqdI4EZrF-T-144" value="nome" style="shape=partialRectangle;html=1;whiteSpace=wrap;connectable=0;strokeColor=inherit;overflow=hidden;fillColor=none;top=0;left=0;bottom=0;right=0;pointerEvents=1;" vertex="1" parent="7bP9xAwLrKqdI4EZrF-T-143">
          <mxGeometry width="80" height="40" as="geometry">
            <mxRectangle width="80" height="40" as="alternateBounds" />
          </mxGeometry>
        </mxCell>
        <mxCell id="7bP9xAwLrKqdI4EZrF-T-145" value="VARCHAR(100), not null" style="shape=partialRectangle;html=1;whiteSpace=wrap;connectable=0;strokeColor=inherit;overflow=hidden;fillColor=none;top=0;left=0;bottom=0;right=0;pointerEvents=1;" vertex="1" parent="7bP9xAwLrKqdI4EZrF-T-143">
          <mxGeometry x="80" width="130" height="40" as="geometry">
            <mxRectangle width="130" height="40" as="alternateBounds" />
          </mxGeometry>
        </mxCell>
        <mxCell id="7bP9xAwLrKqdI4EZrF-T-146" value="" style="shape=tableRow;horizontal=0;startSize=0;swimlaneHead=0;swimlaneBody=0;strokeColor=inherit;top=0;left=0;bottom=0;right=0;collapsible=0;dropTarget=0;fillColor=none;points=[[0,0.5],[1,0.5]];portConstraint=eastwest;" vertex="1" parent="7bP9xAwLrKqdI4EZrF-T-139">
          <mxGeometry y="80" width="210" height="40" as="geometry" />
        </mxCell>
        <mxCell id="7bP9xAwLrKqdI4EZrF-T-147" value="descrizione" style="shape=partialRectangle;html=1;whiteSpace=wrap;connectable=0;strokeColor=inherit;overflow=hidden;fillColor=none;top=0;left=0;bottom=0;right=0;pointerEvents=1;" vertex="1" parent="7bP9xAwLrKqdI4EZrF-T-146">
          <mxGeometry width="80" height="40" as="geometry">
            <mxRectangle width="80" height="40" as="alternateBounds" />
          </mxGeometry>
        </mxCell>
        <mxCell id="7bP9xAwLrKqdI4EZrF-T-148" value="text, nullable" style="shape=partialRectangle;html=1;whiteSpace=wrap;connectable=0;strokeColor=inherit;overflow=hidden;fillColor=none;top=0;left=0;bottom=0;right=0;pointerEvents=1;" vertex="1" parent="7bP9xAwLrKqdI4EZrF-T-146">
          <mxGeometry x="80" width="130" height="40" as="geometry">
            <mxRectangle width="130" height="40" as="alternateBounds" />
          </mxGeometry>
        </mxCell>
        <mxCell id="7bP9xAwLrKqdI4EZrF-T-155" value="tag" style="text;html=1;align=center;verticalAlign=middle;resizable=0;points=[];autosize=1;strokeColor=none;fillColor=none;" vertex="1" parent="1">
          <mxGeometry x="665" y="520" width="40" height="30" as="geometry" />
        </mxCell>
        <mxCell id="7bP9xAwLrKqdI4EZrF-T-157" value="" style="edgeStyle=orthogonalEdgeStyle;rounded=0;orthogonalLoop=1;jettySize=auto;html=1;entryX=1;entryY=0.5;entryDx=0;entryDy=0;" edge="1" parent="1" source="7bP9xAwLrKqdI4EZrF-T-143" target="7bP9xAwLrKqdI4EZrF-T-158">
          <mxGeometry relative="1" as="geometry">
            <mxPoint x="330" y="820" as="targetPoint" />
            <mxPoint x="580" y="620" as="sourcePoint" />
          </mxGeometry>
        </mxCell>
        <mxCell id="7bP9xAwLrKqdI4EZrF-T-158" value="" style="rhombus;whiteSpace=wrap;html=1;" vertex="1" parent="1">
          <mxGeometry x="410" y="660" width="80" height="80" as="geometry" />
        </mxCell>
        <mxCell id="7bP9xAwLrKqdI4EZrF-T-159" value="*" style="text;html=1;align=center;verticalAlign=middle;resizable=0;points=[];autosize=1;strokeColor=none;fillColor=none;" vertex="1" parent="1">
          <mxGeometry x="550" y="585" width="30" height="30" as="geometry" />
        </mxCell>
        <mxCell id="7bP9xAwLrKqdI4EZrF-T-160" value="*" style="text;html=1;align=center;verticalAlign=middle;resizable=0;points=[];autosize=1;strokeColor=none;fillColor=none;" vertex="1" parent="1">
          <mxGeometry x="330" y="790" width="30" height="30" as="geometry" />
        </mxCell>
        <mxCell id="7bP9xAwLrKqdI4EZrF-T-161" value="" style="shape=table;startSize=0;container=1;collapsible=0;childLayout=tableLayout;" vertex="1" parent="1">
          <mxGeometry x="650" y="810" width="160" height="160" as="geometry" />
        </mxCell>
        <mxCell id="7bP9xAwLrKqdI4EZrF-T-162" value="" style="shape=tableRow;horizontal=0;startSize=0;swimlaneHead=0;swimlaneBody=0;strokeColor=inherit;top=0;left=0;bottom=0;right=0;collapsible=0;dropTarget=0;fillColor=none;points=[[0,0.5],[1,0.5]];portConstraint=eastwest;" vertex="1" parent="7bP9xAwLrKqdI4EZrF-T-161">
          <mxGeometry width="160" height="40" as="geometry" />
        </mxCell>
        <mxCell id="7bP9xAwLrKqdI4EZrF-T-163" value="ID" style="shape=partialRectangle;html=1;whiteSpace=wrap;connectable=0;strokeColor=inherit;overflow=hidden;fillColor=none;top=0;left=0;bottom=0;right=0;pointerEvents=1;" vertex="1" parent="7bP9xAwLrKqdI4EZrF-T-162">
          <mxGeometry width="60" height="40" as="geometry">
            <mxRectangle width="60" height="40" as="alternateBounds" />
          </mxGeometry>
        </mxCell>
        <mxCell id="7bP9xAwLrKqdI4EZrF-T-164" value="pk" style="shape=partialRectangle;html=1;whiteSpace=wrap;connectable=0;strokeColor=inherit;overflow=hidden;fillColor=none;top=0;left=0;bottom=0;right=0;pointerEvents=1;" vertex="1" parent="7bP9xAwLrKqdI4EZrF-T-162">
          <mxGeometry x="60" width="100" height="40" as="geometry">
            <mxRectangle width="100" height="40" as="alternateBounds" />
          </mxGeometry>
        </mxCell>
        <mxCell id="7bP9xAwLrKqdI4EZrF-T-165" value="" style="shape=tableRow;horizontal=0;startSize=0;swimlaneHead=0;swimlaneBody=0;strokeColor=inherit;top=0;left=0;bottom=0;right=0;collapsible=0;dropTarget=0;fillColor=none;points=[[0,0.5],[1,0.5]];portConstraint=eastwest;" vertex="1" parent="7bP9xAwLrKqdI4EZrF-T-161">
          <mxGeometry y="40" width="160" height="40" as="geometry" />
        </mxCell>
        <mxCell id="7bP9xAwLrKqdI4EZrF-T-166" value="nome" style="shape=partialRectangle;html=1;whiteSpace=wrap;connectable=0;strokeColor=inherit;overflow=hidden;fillColor=none;top=0;left=0;bottom=0;right=0;pointerEvents=1;" vertex="1" parent="7bP9xAwLrKqdI4EZrF-T-165">
          <mxGeometry width="60" height="40" as="geometry">
            <mxRectangle width="60" height="40" as="alternateBounds" />
          </mxGeometry>
        </mxCell>
        <mxCell id="7bP9xAwLrKqdI4EZrF-T-167" value="VARCHAR(100), not null" style="shape=partialRectangle;html=1;whiteSpace=wrap;connectable=0;strokeColor=inherit;overflow=hidden;fillColor=none;top=0;left=0;bottom=0;right=0;pointerEvents=1;" vertex="1" parent="7bP9xAwLrKqdI4EZrF-T-165">
          <mxGeometry x="60" width="100" height="40" as="geometry">
            <mxRectangle width="100" height="40" as="alternateBounds" />
          </mxGeometry>
        </mxCell>
        <mxCell id="7bP9xAwLrKqdI4EZrF-T-168" value="" style="shape=tableRow;horizontal=0;startSize=0;swimlaneHead=0;swimlaneBody=0;strokeColor=inherit;top=0;left=0;bottom=0;right=0;collapsible=0;dropTarget=0;fillColor=none;points=[[0,0.5],[1,0.5]];portConstraint=eastwest;" vertex="1" parent="7bP9xAwLrKqdI4EZrF-T-161">
          <mxGeometry y="80" width="160" height="40" as="geometry" />
        </mxCell>
        <mxCell id="7bP9xAwLrKqdI4EZrF-T-169" value="indirizzo" style="shape=partialRectangle;html=1;whiteSpace=wrap;connectable=0;strokeColor=inherit;overflow=hidden;fillColor=none;top=0;left=0;bottom=0;right=0;pointerEvents=1;" vertex="1" parent="7bP9xAwLrKqdI4EZrF-T-168">
          <mxGeometry width="60" height="40" as="geometry">
            <mxRectangle width="60" height="40" as="alternateBounds" />
          </mxGeometry>
        </mxCell>
        <mxCell id="7bP9xAwLrKqdI4EZrF-T-170" value="VARCHAR(100), not null" style="shape=partialRectangle;html=1;whiteSpace=wrap;connectable=0;strokeColor=inherit;overflow=hidden;fillColor=none;top=0;left=0;bottom=0;right=0;pointerEvents=1;" vertex="1" parent="7bP9xAwLrKqdI4EZrF-T-168">
          <mxGeometry x="60" width="100" height="40" as="geometry">
            <mxRectangle width="100" height="40" as="alternateBounds" />
          </mxGeometry>
        </mxCell>
        <mxCell id="7bP9xAwLrKqdI4EZrF-T-171" value="" style="shape=tableRow;horizontal=0;startSize=0;swimlaneHead=0;swimlaneBody=0;strokeColor=inherit;top=0;left=0;bottom=0;right=0;collapsible=0;dropTarget=0;fillColor=none;points=[[0,0.5],[1,0.5]];portConstraint=eastwest;" vertex="1" parent="7bP9xAwLrKqdI4EZrF-T-161">
          <mxGeometry y="120" width="160" height="40" as="geometry" />
        </mxCell>
        <mxCell id="7bP9xAwLrKqdI4EZrF-T-172" value="imaggine" style="shape=partialRectangle;html=1;whiteSpace=wrap;connectable=0;strokeColor=inherit;overflow=hidden;fillColor=none;top=0;left=0;bottom=0;right=0;pointerEvents=1;" vertex="1" parent="7bP9xAwLrKqdI4EZrF-T-171">
          <mxGeometry width="60" height="40" as="geometry">
            <mxRectangle width="60" height="40" as="alternateBounds" />
          </mxGeometry>
        </mxCell>
        <mxCell id="7bP9xAwLrKqdI4EZrF-T-173" value="VARCHAR(255), nullable" style="shape=partialRectangle;html=1;whiteSpace=wrap;connectable=0;strokeColor=inherit;overflow=hidden;fillColor=none;top=0;left=0;bottom=0;right=0;pointerEvents=1;" vertex="1" parent="7bP9xAwLrKqdI4EZrF-T-171">
          <mxGeometry x="60" width="100" height="40" as="geometry">
            <mxRectangle width="100" height="40" as="alternateBounds" />
          </mxGeometry>
        </mxCell>
        <mxCell id="7bP9xAwLrKqdI4EZrF-T-186" value="location" style="text;html=1;align=center;verticalAlign=middle;resizable=0;points=[];autosize=1;strokeColor=none;fillColor=none;" vertex="1" parent="1">
          <mxGeometry x="650" y="770" width="60" height="30" as="geometry" />
        </mxCell>
        <mxCell id="7bP9xAwLrKqdI4EZrF-T-188" value="*" style="text;html=1;align=center;verticalAlign=middle;resizable=0;points=[];autosize=1;strokeColor=none;fillColor=none;" vertex="1" parent="1">
          <mxGeometry x="330" y="850" width="30" height="30" as="geometry" />
        </mxCell>
        <mxCell id="7bP9xAwLrKqdI4EZrF-T-189" value="1" style="text;html=1;align=center;verticalAlign=middle;resizable=0;points=[];autosize=1;strokeColor=none;fillColor=none;" vertex="1" parent="1">
          <mxGeometry x="595" y="840" width="30" height="30" as="geometry" />
        </mxCell>
        <mxCell id="7bP9xAwLrKqdI4EZrF-T-190" style="edgeStyle=orthogonalEdgeStyle;rounded=0;orthogonalLoop=1;jettySize=auto;html=1;entryX=0;entryY=0.5;entryDx=0;entryDy=0;" edge="1" parent="1" source="7bP9xAwLrKqdI4EZrF-T-128" target="7bP9xAwLrKqdI4EZrF-T-165">
          <mxGeometry relative="1" as="geometry" />
        </mxCell>
        <mxCell id="7bP9xAwLrKqdI4EZrF-T-191" value="*" style="text;html=1;align=center;verticalAlign=middle;resizable=0;points=[];autosize=1;strokeColor=none;fillColor=none;" vertex="1" parent="1">
          <mxGeometry x="330" y="910" width="30" height="30" as="geometry" />
        </mxCell>
        <mxCell id="7bP9xAwLrKqdI4EZrF-T-215" style="edgeStyle=orthogonalEdgeStyle;rounded=0;orthogonalLoop=1;jettySize=auto;html=1;entryX=1;entryY=0.5;entryDx=0;entryDy=0;" edge="1" parent="1" source="7bP9xAwLrKqdI4EZrF-T-213" target="7bP9xAwLrKqdI4EZrF-T-105">
          <mxGeometry relative="1" as="geometry" />
        </mxCell>
        <mxCell id="7bP9xAwLrKqdI4EZrF-T-213" value="&lt;div&gt;prenotazione&lt;/div&gt;&lt;div&gt;&lt;br&gt;&lt;/div&gt;" style="rhombus;whiteSpace=wrap;html=1;" vertex="1" parent="1">
          <mxGeometry x="300" y="360" width="150" height="140" as="geometry" />
        </mxCell>
        <mxCell id="7bP9xAwLrKqdI4EZrF-T-214" style="edgeStyle=orthogonalEdgeStyle;rounded=0;orthogonalLoop=1;jettySize=auto;html=1;" edge="1" parent="1" source="7bP9xAwLrKqdI4EZrF-T-14" target="7bP9xAwLrKqdI4EZrF-T-213">
          <mxGeometry relative="1" as="geometry" />
        </mxCell>
        <mxCell id="7bP9xAwLrKqdI4EZrF-T-216" value="*" style="text;html=1;align=center;verticalAlign=middle;resizable=0;points=[];autosize=1;strokeColor=none;fillColor=none;" vertex="1" parent="1">
          <mxGeometry x="880" y="70" width="30" height="30" as="geometry" />
        </mxCell>
        <mxCell id="7bP9xAwLrKqdI4EZrF-T-217" value="*" style="text;html=1;align=center;verticalAlign=middle;resizable=0;points=[];autosize=1;strokeColor=none;fillColor=none;" vertex="1" parent="1">
          <mxGeometry x="715" y="90" width="30" height="30" as="geometry" />
        </mxCell>
      </root>
    </mxGraphModel>
  </diagram>
</mxfile>
